<svg xmlns="http://www.w3.org/2000/svg" xmlns:xlink="http://www.w3.org/1999/xlink" preserveAspectRatio="none" width="72" height="72"><defs><path fill="#FCC21B" d="M70.35 44.8q2.75-13.45-.65-24.45-3.55-11.7-12.8-16.3-13.4-6.7-26.95-2.65Q16.2 5.5 8.7 18.7-1 33.2.55 57.5q.4 5.85 10.6 9.95Q21.5 71.6 36.1 71.6q14.55 0 24.8-4.15 10.15-4.1 10.7-9.95.1-1.1-1.35-5.05-1.25-3.35.1-7.65z" id="a"/><path fill="#2F2F2F" d="M15.35 22.65q-1.15 2.2-.55 4.3.5 2.1 2.25 3.05 1.85.9 3.85 0 2.05-.95 3.2-3.05 1.05-2.1.55-4.35-.55-2.15-2.4-3-1.8-.9-3.85 0-2 .9-3.05 3.05m32.75-.15q-1.15.25-2.2 1.1-1.85 1.45-2.45 3.9-.45 2.55.6 4.55 1.1 2.1 3.25 2.45.45.1.8.15 1.6 0 3.1-1.2 1.8-1.4 2.35-3.9.5-2.4-.6-4.5-1.1-2.05-3.15-2.55-.8-.05-1.7 0z" id="c"/><path id="b" stroke="#2F2F2F" stroke-width="2.5" stroke-linejoin="round" stroke-linecap="round" fill="none" d="M22.5 35.65q.6 3.65 2.9 7.4 3.5-2.4 5.85-5.8 1.75 4 4.65 7.3 3.15-1.9 6.5-5.65"/></defs><use xlink:href="#a" transform="matrix(1 0 0 .86357 0 4.95)"/><use xlink:href="#b"/><use xlink:href="#c"/></svg>