<svg xmlns="http://www.w3.org/2000/svg" viewBox="0 0 864 864"><defs><style>.a{fill:#ff4131;}.b{fill:#0086f8;}.c{fill:#00aa4b;}.d{fill:#ffbd00;}.e{fill:#fcc21b;stroke:#2f2f2f;stroke-miterlimit:10;stroke-width:20px;}.f{fill:#2f2f2f;}</style></defs><title>blobserver_2</title><polygon class="a" points="0 108 432 432 864 108 864 0 0 0 0 108"/><polygon class="b" points="864 108 432 432 864 756 864 108"/><polygon class="c" points="0 756 432 432 864 756 864 864 0 864 0 756"/><polygon class="d" points="0 108 0 756 432 432 0 108"/><path class="e" d="M432,185.14c-283,0-289.72,317.24-289.72,380.06S272.1,678.86,432,678.86,721.7,627.94,721.7,565.2,715,185.14,432,185.14Z"/><path class="f" d="M520.61,528.19v42.54H339.74L432.5,450.85q19.26-24.78,26.84-39t7.58-25.14q0-15.12-9.19-23.73t-25.23-8.62q-15,0-23.91,10.82t-8.91,29.09v1.23H347.06v-4.4q0-38.31,22.29-59.32t63.15-21q41.73,0,64.92,18.81t23.19,52.56q0,38-60.29,112.15l-3.75,4.39L432.5,528.19Z"/></svg>