<svg xmlns="http://www.w3.org/2000/svg" viewBox="0 0 864 864"><defs><style>.a{fill:#ff4131;}.b{fill:#0086f8;}.c{fill:#00aa4b;}.d{fill:#ffbd00;}.e{fill:#fcc21b;stroke:#2f2f2f;stroke-miterlimit:10;stroke-width:20px;}.f{fill:#2f2f2f;}</style></defs><title>blobserver_7</title><polygon class="a" points="0 108 432 432 864 108 864 0 0 0 0 108"/><polygon class="b" points="864 108 432 432 864 756 864 108"/><polygon class="c" points="0 756 432 432 864 756 864 864 0 864 0 756"/><polygon class="d" points="0 108 0 756 432 432 0 108"/><path class="e" d="M432,185.14c-283,0-289.72,317.24-289.72,380.06S272.1,678.86,432,678.86,721.7,627.94,721.7,565.2,715,185.14,432,185.14Z"/><path class="f" d="M354.13,574.33,458.47,362.69H340.93V319.45H527.14v16.17L410,574.33Z"/></svg>