<svg xmlns="http://www.w3.org/2000/svg" viewBox="0 0 864 864"><defs><style>.a{fill:#ff4131;}.b{fill:#0086f8;}.c{fill:#00aa4b;}.d{fill:#ffbd00;}.e{fill:#fcc21b;stroke:#2f2f2f;stroke-miterlimit:10;stroke-width:20px;}.f{fill:#2f2f2f;}</style></defs><title>blobserver_6</title><polygon class="a" points="0 108 432 432 864 108 864 0 0 0 0 108"/><polygon class="b" points="864 108 432 432 864 756 864 108"/><polygon class="c" points="0 756 432 432 864 756 864 864 0 864 0 756"/><polygon class="d" points="0 108 0 756 432 432 0 108"/><path class="e" d="M432,185.14c-283,0-289.72,317.24-289.72,380.06S272.1,678.86,432,678.86,721.7,627.94,721.7,565.2,715,185.14,432,185.14Z"/><path class="f" d="M410.3,417.1a58.66,58.66,0,0,1,15-5.54A89.74,89.74,0,0,1,444,409.89q33.35,0,54.67,22.33T520,489.34q0,39.74-25.95,64t-68.4,24.26q-40,0-63.95-24.26T337.7,489q0-23,10.61-50.27T381,378.08l41.38-62.23h62.43Zm-21.94,74.35q0,18.82,10.88,29.8t29.43,11q17.65,0,28.54-11.25t10.88-29.54q0-19.33-10.88-30.32t-30-11q-17.12,0-28,11.6T388.36,491.45Z"/></svg>