<svg xmlns="http://www.w3.org/2000/svg" viewBox="0 0 864 864"><defs><style>.a{fill:#ff4131;}.b{fill:#0086f8;}.c{fill:#00aa4b;}.d{fill:#ffbd00;}.e{fill:#fcc21b;stroke:#2f2f2f;stroke-miterlimit:10;stroke-width:20px;}.f{fill:#2f2f2f;}</style></defs><title>blobserver_3</title><polygon class="a" points="0 108 432 432 864 108 864 0 0 0 0 108"/><polygon class="b" points="864 108 432 432 864 756 864 108"/><polygon class="c" points="0 756 432 432 864 756 864 864 0 864 0 756"/><polygon class="d" points="0 108 0 756 432 432 0 108"/><path class="e" d="M432,185.14c-283,0-289.72,317.24-289.72,380.06S272.1,678.86,432,678.86,721.7,627.94,721.7,565.2,715,185.14,432,185.14Z"/><path class="f" d="M340.78,500.9h51.55v.71a27.87,27.87,0,0,0,10.61,22.59q10.62,8.7,27.74,8.7,19.8,0,30.59-9.67t10.79-27.42q0-18.81-11.15-28.48t-32.73-9.67q-1.06,0-3.39.18c-1.54.12-2.73.17-3.56.17V413q1.06,0,3.21.18t3,.18q19.26,0,29-8.09T466.17,381q0-13.71-8.83-22.15t-23.27-8.43q-15.35,0-24.08,6.85T399.64,377H350.06q1.95-32.7,24.08-50.36T435.85,309q38,0,60.29,18.46t22.29,49.92q0,22-12,37.35t-31.84,18.9q23,4.92,36.56,22.68t13.56,43.24q0,35.32-25.51,55.81t-69.56,20.48q-40.14,0-64.48-20T340.78,503Z"/></svg>