<svg width="24" height="24" xmlns="http://www.w3.org/2000/svg"><path d="M12 4c-3.9188299-.0654111-7.6437099 2.7522469-8.6582031 6.537109-1.0603857 3.565559.376196 7.691094 3.4472656 9.802735 3.1307297 2.301743 7.7513255 2.189937 10.7675785-.259766 3.030571-2.30223 4.249979-6.622429 2.896484-10.173828C19.215966 6.4168101 15.705008 3.954285 12 4zm-.597656 2.0195312c2.356898-.1834754 4.807731.8461904 6.207031 2.7929688 1.998727 2.571974 1.809322 6.526395-.427734 8.894531C15.877224 19.156461 13.950894 20.012076 12 20c-3.2312465.063203-6.2637189-2.415367-6.8574219-5.589844-.6979731-3.111146 1.0509888-6.5286864 3.9765625-7.7910154.7223788-.3413506 1.4975704-.5384509 2.2832034-.5996094zM22 5.72c-1.533333-1.2866667-3.066667-2.5733333-4.6-3.86l-1.29 1.53c1.533333 1.2866667 3.066667 2.5733333 4.6 3.86L22 5.72zM7.88 3.39c-.4266667-.51-.8533333-1.02-1.28-1.53L2 5.71l1.29 1.53c1.53-1.2833333 3.06-2.5666667 4.59-3.85z"/><path d="M10.540262 10.49668v5.000001H9.2902623v-3.75H8.0402622V10.49668zm4.583334 2.916667h-1.666667v.833334h2.500001v1.25h-3.750001v-2.083334c0-.458333.375-.833333.833334-.833333h1.666666v-.833333h-2.5V10.49668h2.916667c.458334 0 .833334.375001.833334.833334v1.25c0 .458333-.375.833333-.833334.833333z"/></svg>