<svg width="24" height="24" xmlns="http://www.w3.org/2000/svg"><path d="M12.005333 4.0000005c-3.9188296-.065411-7.6437096 2.7522469-8.6582028 6.5371085-1.0603857 3.565559.376196 7.691094 3.4472656 9.802735 3.1307297 2.301743 7.7513252 2.189937 10.7675782-.259766 3.030571-2.30223 4.249979-6.622429 2.896484-10.1738275-1.237159-3.4894399-4.748117-5.951965-8.453125-5.90625zm-.597656 2.0195312c2.356898-.1834754 4.807731.8461904 6.207031 2.7929688 1.998727 2.5719735 1.809322 6.5263945-.427734 8.8945305-1.304417 1.44943-3.230747 2.305045-5.181641 2.292969-3.2312462.063203-6.2637186-2.415367-6.8574216-5.589844-.6979731-3.111146 1.0509888-6.5286859 3.9765625-7.7910149.7223788-.3413506 1.4975701-.5384509 2.2832031-.5996094zM22 5.72c-1.533333-1.2866667-3.066667-2.5733333-4.6-3.86l-1.29 1.53c1.533333 1.2866667 3.066667 2.5733333 4.6 3.86L22 5.72zM7.88 3.39c-.4266667-.51-.8533333-1.02-1.28-1.53L2 5.71l1.29 1.53c1.53-1.2833333 3.06-2.5666667 4.59-3.85z"/><path d="M9.9205966 13.413347H8.2539288v.833334H10.75393v1.25H7.0039285v-2.083334c0-.458333.3750001-.833333.8333335-.833333h1.666667v-.833334H7.0039285v-1.249999h2.9166681c.4583334 0 .8333334.375.8333334.833334v1.249999c0 .458333-.375.833333-.8333334.833333zm7.0833334.833334h-.833333v1.25h-1.250001v-1.25h-2.5v-3.75h1.25v2.5h1.25v-2.5h1.250001v2.5h.833333z"/></svg>